<?xml version="1.0" encoding="UTF-8"?> <svg xmlns="http://www.w3.org/2000/svg" width="176" height="99"><g fill="none" fill-rule="nonzero"><path d="M47.68 51.785c2.816 0 6.888-.58 6.888-3.928a3.15 3.15 0 00-.07-.77l-1.676-7.28c-.387-1.603-.727-2.33-3.54-3.736-2.182-1.116-6.936-2.959-8.342-2.959-1.31 0-1.69 1.688-3.252 1.688-1.503 0-2.619-1.26-4.025-1.26-1.35 0-2.23.92-2.909 2.813 0 0-1.892 5.337-2.135 6.11-.039.143-.056.29-.05.437 0 2.075 8.168 8.876 19.112 8.876M55 49.216c.39 1.843.39 2.036.39 2.279 0 3.15-3.542 4.898-8.197 4.898-10.521.007-19.737-6.158-19.737-10.233-.001-.567.115-1.128.34-1.649-3.785.189-8.683.864-8.683 5.188 0 7.084 16.782 15.814 30.07 15.814 10.189 0 12.758-4.609 12.758-8.247 0-2.862-2.475-6.11-6.937-8.05" fill="#E00"></path><path d="M55 49.216c.39 1.843.39 2.036.39 2.279 0 3.15-3.542 4.898-8.197 4.898-10.521.007-19.738-6.158-19.738-10.233 0-.567.116-1.128.34-1.649l.824-2.039c-.038.14-.055.284-.05.428 0 2.075 8.168 8.876 19.112 8.876 2.815 0 6.887-.58 6.887-3.928a3.15 3.15 0 00-.07-.77L55 49.216zM149.441 53.88c0 2.675 1.61 3.976 4.543 3.976.904-.023 1.801-.15 2.675-.378v-3.103a5.589 5.589 0 01-1.727.261c-1.209 0-1.656-.378-1.656-1.514v-4.755h3.5v-3.194h-3.5v-4.05l-3.826.828v3.221h-2.54v3.196h2.531v5.512zm-11.924.072c0-.828.83-1.23 2.083-1.23.766.004 1.529.099 2.273.283v1.608a4.84 4.84 0 01-2.392.592c-1.229 0-1.964-.472-1.964-1.253m1.17 3.951c1.35 0 2.438-.283 3.456-.97v.758h3.784v-8.023c0-3.051-2.056-4.725-5.488-4.725-1.917 0-3.811.45-5.85 1.373l1.373 2.816c1.467-.616 2.7-.994 3.787-.994 1.575 0 2.389.614 2.389 1.87v.614c-.927-.24-1.882-.36-2.84-.355-3.22 0-5.159 1.35-5.159 3.764 0 2.2 1.75 3.879 4.543 3.879m-20.799-.212h4.07v-6.491h6.815v6.484h4.082V41.127h-4.066v6.365h-6.815v-6.365h-4.07l-.016 16.571zm-15.493-6.277c0-1.8 1.42-3.173 3.289-3.173a3.874 3.874 0 012.646.972v4.377a3.681 3.681 0 01-2.646 1.003c-1.845 0-3.29-1.373-3.29-3.17m5.988 6.27h3.787V40.3l-3.826.828v4.71a6.367 6.367 0 00-3.194-.829c-3.643 0-6.508 2.815-6.508 6.413a6.356 6.356 0 006.39 6.435 5.653 5.653 0 003.36-1.087l-.01.931zM91 48.075c1.206 0 2.223.78 2.626 1.987h-5.22c.378-1.244 1.325-1.987 2.594-1.987m-6.45 3.375c0 3.645 2.98 6.484 6.812 6.484 2.106 0 3.645-.569 5.232-1.894l-2.534-2.25c-.592.617-1.467.947-2.507.947a3.238 3.238 0 01-3.078-1.986h8.922v-.952c0-3.976-2.673-6.838-6.318-6.838a6.428 6.428 0 00-6.525 6.482m-6.604-6.837c1.35 0 2.106.85 2.106 1.87 0 1.019-.756 1.869-2.106 1.869h-4.025v-3.74h4.025zm-8.1 13.085h4.07v-6.034h3.099l3.125 6.035H84.7l-3.645-6.627a5.01 5.01 0 003.123-4.662c0-2.981-2.342-5.276-5.85-5.276H69.85v16.564z" fill="#000"></path></g></svg> 