<?xml version="1.0" encoding="UTF-8"?> <svg xmlns="http://www.w3.org/2000/svg" width="176" height="99"><g fill="#054ADA" fill-rule="nonzero"><path d="M38.06 66.934h19.537v2.806H38.06zM38.06 61.578h19.537v2.806H38.06zM43.642 56.222h8.373v2.805h-8.373zM43.642 50.865h8.373v2.806h-8.373zM43.642 45.509h8.373v2.806h-8.373zM43.642 40.153h8.373v2.805h-8.373zM38.06 34.796h19.537v2.806H38.06zM38.06 29.44h19.537v2.806H38.06zM60.388 64.384h30.04a9.975 9.975 0 001.117-2.806H60.388v2.806zM88.094 50.865H65.969v2.806h24.46a11.343 11.343 0 00-2.335-2.806zM65.97 45.509v2.806h22.124a10.336 10.336 0 002.334-2.806H65.97zM90.428 34.796h-30.04v2.806h31.157a11.768 11.768 0 00-1.117-2.806zM81.193 29.44H60.388v2.806h27.985a10.578 10.578 0 00-7.18-2.806zM65.969 40.153h8.373v2.806h-8.373zM82.715 42.958h8.754c.253-.892.38-1.836.38-2.805h-9.134v2.805zM65.97 56.222h8.372v2.805H65.97zM82.715 56.222v2.805h9.134c0-.969-.127-1.913-.38-2.805h-8.754zM60.388 69.714l20.805.026a10.53 10.53 0 007.18-2.806H60.388v2.78zM93.879 66.934h13.955v2.806H93.879zM93.879 61.578h13.955v2.806H93.879zM99.46 56.222h8.374v2.805H99.46zM99.46 50.865h8.374v2.806H99.46zM111.716 34.796H93.879v2.806h18.8zM109.863 29.44H93.88v2.806h16.949zM124.58 66.934h13.954v2.806h-13.955zM124.58 61.578h13.954v2.806h-13.955zM124.58 56.222h8.372v2.805h-8.373zM124.58 50.865h8.372v2.806h-8.373zM124.58 48.315h8.372v-2.806h-15.959l-.787 2.27-.786-2.27H99.46v2.806h8.373v-2.576l.888 2.576h14.97l.887-2.576zM132.952 40.153h-14.107l-.964 2.805h15.071zM122.55 29.44l-.965 2.806h16.949V29.44zM116.206 69.714l.965-2.78h-1.929zM114.354 64.384h3.705l.99-2.806h-5.684zM112.477 59.027h7.46l.989-2.805h-9.439zM110.6 53.671h11.214l.964-2.806h-13.143zM99.46 42.958h15.072l-.964-2.805H99.46zM119.733 37.602h18.801v-2.806h-17.837z"></path></g></svg> 