<?xml version="1.0" encoding="UTF-8"?> <svg xmlns="http://www.w3.org/2000/svg" width="176" height="99"><g fill="none" fill-rule="nonzero"><path fill="#49266C" d="M102.862 43.254v-3.13H91.7v16.1h11.163V52.96H96.22V49.39h5.526v-3.125h-5.526v-3.011h6.643M122.547 53.048h-6.974V40.124h-4.575v16.1h11.549v-3.176M159.395 46.26c-3.087-.695-4.168-.776-4.168-2.004 0-1.14 1.53-1.494 2.41-1.494 1.423 0 3.104.332 4.817 1.21l1.246-2.963c-1.756-.957-4.008-1.355-6.175-1.355-4.257 0-7.114 1.727-7.234 5.095-.121 3.07 2.376 4.22 4.67 4.693 2.213.458 4.458.849 4.503 2.163.04 1.212-1.05 1.731-3.106 1.731-1.905 0-3.676-.612-5.486-1.37l-1.057 3.22c2.08.885 4.192 1.372 6.369 1.372 3.024 0 5.231-.472 6.856-1.997 1.126-1.047 1.495-2.312 1.495-3.518.002-2.545-1.584-3.979-5.14-4.783M85.21 43.303v-3.179H71.167v3.179h4.744v12.922h4.548V43.303h4.75M138.156 40.124v10.23c0 .8 0 1.022-.048 1.334-.147.975-1.091 1.541-2.598 1.561-1.116-.018-1.934-.348-2.314-.931-.192-.3-.285-.838-.285-1.698V40.124h-4.745V51.22c0 1.538.206 2.232.9 3.11 1.145 1.431 3.378 2.184 6.453 2.184h.168c4.117 0 6.243-1.605 6.857-3.107.307-.729.33-1.074.33-2.543v-10.74h-4.718M73.311 35.716l-26.609 5.298v1.855l.085-.021c17.578-4.273 26.524-6.843 26.596-6.861.1-.026.134-.104.12-.169-.014-.068-.086-.125-.192-.102"></path><path d="M51.677 35.21c-1.293.073-3.688 1.99-5.003 3.127-5.235 4.53-9.127 8.692-11.958 13.052-5.9 3.16-13.423 6.41-20.892 8.947l-.18.06-1.437 3.871.82-.317c4.752-1.81 12.682-5.21 19.87-8.991-.404 1.08-.608 2.072-.608 2.977 0 .675.113 1.302.338 1.872.452 1.14 1.343 2.002 2.579 2.492 1.84.735 4.35.748 7.213-.12 7.317-2.217 15.995-9.025 17.884-10.38l.072-.05c.075-.054.08-.135.049-.19-.042-.062-.129-.079-.2-.035h-.001l-.092.056c-2.028 1.217-11.88 7.067-18.285 8.785-3.262.875-5.748.397-6.686-.915-.326-.448-.482-1.015-.482-1.676 0-1.29.607-2.934 1.777-4.761a80.493 80.493 0 002.99-1.782c6.248-3.511 13.447-10.338 13.754-14.506a1.443 1.443 0 00-.427-1.095 1.382 1.382 0 00-1.095-.421zm-.696 1.986c.41-.265.528-.1.407.2-.195.479-1.097 3.357-7.795 8.856-1.748 1.432-2.991 2.236-5.509 3.726 4.122-5.776 10.14-10.992 12.897-12.782z" fill="#6EBE44"></path><path fill="#49266C" d="M46.615 41.031L18.62 47.05l-1.08 2.911 29.162-7.091.903-.51-.026-1.325-.964-.003"></path></g></svg> 