<?xml version="1.0" encoding="UTF-8"?> <svg xmlns="http://www.w3.org/2000/svg" width="176" height="99"><g fill="none" fill-rule="nonzero"><path d="M17.707 39.704s3.479 14.254 4.034 16.568c.648 2.7 1.815 3.695 5.182 3.024l2.172-8.837c.55-2.196.92-3.76 1.274-5.994h.062c.248 2.255.603 3.805 1.056 6.001 0 0 .884 4.012 1.337 6.12.454 2.106 1.717 3.434 5.015 2.711l5.175-19.592h-4.179l-1.766 8.47c-.476 2.466-.907 4.393-1.239 6.649h-.059c-.302-2.234-.686-4.084-1.17-6.486l-1.84-8.633h-4.353L26.44 48.12c-.558 2.558-1.079 4.622-1.41 6.802h-.06c-.34-2.053-.793-4.648-1.282-7.123 0 0-1.17-6.02-1.58-8.094h-4.4l-.001-.001zm39.836 0v19.592h3.979V39.703h-3.979zm56.035 0v14.453c0 1.993.375 3.389 1.177 4.242.7.746 1.855 1.229 3.239 1.229 1.176 0 2.334-.223 2.879-.426l-.051-3.11c-.406.1-.873.18-1.512.18-1.355 0-1.81-.868-1.81-2.657v-5.53h3.466v-3.748H117.5v-4.633h-3.924zm-64.926 4.542c-2.473 0-4.435.694-5.505 1.312l.783 2.681c.979-.617 2.538-1.128 4.014-1.128 2.444-.006 2.844 1.382 2.844 2.272v.21c-5.326-.007-8.69 1.836-8.69 5.592 0 2.293 1.713 4.443 4.69 4.443 1.833 0 3.366-.731 4.285-1.903h.09s.609 2.544 3.96 1.571c-.176-1.058-.233-2.187-.233-3.547v-5.234c0-3.335-1.424-6.27-6.238-6.27zm23.8 0c-2.49 0-3.61 1.261-4.288 2.332h-.059v-2H64.31v14.719h4v-8.632c0-.405.046-.833.187-1.205.331-.87 1.14-1.886 2.43-1.886 1.615 0 2.37 1.365 2.37 3.334v8.389h3.995V50.56c0-.386.053-.852.167-1.193.328-.989 1.2-1.793 2.4-1.793 1.636 0 2.421 1.34 2.421 3.658v8.065h3.999v-8.67c0-4.571-2.322-6.381-4.942-6.381-1.16 0-2.077.29-2.905.8-.696.426-1.32 1.033-1.864 1.832h-.059c-.634-1.586-2.12-2.632-4.057-2.632zm21.963 0c-2.472 0-4.434.694-5.505 1.312l.784 2.681c.978-.617 2.538-1.128 4.013-1.128 2.443-.006 2.843 1.382 2.843 2.272v.21c-5.324-.007-8.689 1.836-8.689 5.592 0 2.293 1.714 4.443 4.693 4.443 1.831 0 3.365-.731 4.282-1.903h.09s.609 2.544 3.96 1.571c-.175-1.058-.232-2.187-.232-3.547v-5.234c0-3.335-1.425-6.27-6.239-6.27zm16.61 0c-1.532 0-3.274.988-4.006 3.108h-.111v-2.776h-3.6v14.718h4.104V51.76c0-.406.024-.76.089-1.086.303-1.579 1.51-2.588 3.244-2.588.476 0 .816.052 1.185.105v-3.853a3.955 3.955 0 00-.905-.092zm-60.109 7.956v1.836c0 .272-.024.552-.099.797-.308 1.02-1.364 1.882-2.685 1.882-1.1 0-1.975-.625-1.975-1.947 0-2.022 2.225-2.581 4.76-2.568zm45.763 0v1.836c0 .272-.024.552-.099.797-.308 1.02-1.364 1.882-2.684 1.882-1.102 0-1.976-.625-1.976-1.947 0-2.022 2.225-2.581 4.76-2.568z" fill="#007DC6"></path><path d="M142.477 32.618c-1.285 0-2.305.718-2.305 1.59l.78 8.833c.086.532.738.943 1.526.943.79-.001 1.439-.411 1.527-.943l.783-8.832c0-.873-1.023-1.59-2.31-1.59h-.001zm-12.712 7.085c-.666.016-1.424.521-1.906 1.356-.644 1.113-.53 2.356.224 2.792l8.038 3.744c.502.186 1.184-.17 1.58-.851.396-.685.365-1.454-.052-1.795l-7.26-5.092c-.189-.11-.4-.159-.623-.154zm25.423 0a1.17 1.17 0 00-.622.153l-7.26 5.093c-.416.34-.447 1.11-.052 1.794.397.682 1.077 1.038 1.579.851l8.042-3.743c.757-.436.865-1.679.225-2.792-.484-.835-1.243-1.34-1.91-1.356h-.002zm-18.766 11.654a.814.814 0 00-.3.05l-8.038 3.739c-.754.438-.868 1.681-.224 2.795.643 1.11 1.775 1.638 2.53 1.203l7.26-5.089c.418-.345.448-1.114.051-1.798l.004.002c-.321-.557-.833-.896-1.283-.902zm12.114 0c-.45.006-.961.345-1.283.902l.003-.002c-.395.684-.364 1.453.051 1.799l7.261 5.088c.753.435 1.886-.093 2.532-1.203.64-1.114.531-2.357-.226-2.795l-8.04-3.74a.813.813 0 00-.298-.05zm-6.06 3.66c-.787.001-1.437.41-1.523.94l-.78 8.833c0 .874 1.02 1.59 2.305 1.59 1.287 0 2.31-.716 2.31-1.59l-.782-8.832c-.088-.531-.738-.94-1.527-.94h-.003z" fill="#FFC220"></path></g></svg> 