<?xml version="1.0" encoding="UTF-8"?> <svg xmlns="http://www.w3.org/2000/svg" width="176" height="99"><g fill="#010202" fill-rule="nonzero"><path d="M44.75 57.282c.423 1.099 1.008 2.038 1.755 2.818a7.556 7.556 0 002.657 1.79c1.023.414 2.136.621 3.338.621 1.17 0 2.266-.215 3.29-.644a8.098 8.098 0 002.68-1.815 8.204 8.204 0 001.78-2.794c.422-1.082.633-2.292.633-3.629V33H66v33.427h-5.069v-3.104a11.757 11.757 0 01-4.02 2.722c-1.544.637-3.209.955-4.996.955-1.82 0-3.517-.31-5.093-.931s-2.94-1.504-4.094-2.65c-1.153-1.147-2.063-2.523-2.729-4.131C39.333 57.68 39 55.89 39 53.916V33h5.117v20.63c0 1.336.211 2.554.634 3.652zM74.958 33v12.177a13.15 13.15 0 013.977-2.65c1.505-.653 3.141-.98 4.909-.98 1.832 0 3.55.335 5.154 1.004 1.604.668 2.995 1.575 4.173 2.722a12.796 12.796 0 012.798 4.058A12.182 12.182 0 0197 54.298c0 1.75-.344 3.398-1.03 4.942a12.868 12.868 0 01-2.8 4.035c-1.177 1.146-2.568 2.054-4.172 2.722-1.604.669-3.322 1.003-5.154 1.003-1.768 0-3.412-.326-4.934-.979a13.063 13.063 0 01-4-2.65v3.056H70V33h4.958zm.565 24.593a8.298 8.298 0 001.84 2.674 8.9 8.9 0 002.75 1.815 8.56 8.56 0 003.387.668c1.178 0 2.29-.223 3.338-.668a8.6 8.6 0 002.725-1.815 8.845 8.845 0 001.84-2.674 7.939 7.939 0 00.688-3.295c0-1.178-.23-2.284-.687-3.319a8.763 8.763 0 00-1.841-2.698 8.28 8.28 0 00-2.725-1.79 8.708 8.708 0 00-3.338-.645 8.705 8.705 0 00-6.087 2.435 8.557 8.557 0 00-1.866 2.698 8.104 8.104 0 00-.687 3.319c0 1.178.22 2.276.663 3.295zM98.967 48.981a13.339 13.339 0 012.66-4.137 12.355 12.355 0 014.013-2.816c1.548-.685 3.224-1.028 5.03-1.028 1.772 0 3.416.326 4.932.98a11.695 11.695 0 013.916 2.717c1.096 1.159 1.95 2.53 2.563 4.113.613 1.583.919 3.305.919 5.166v1.615h-20.068a8.444 8.444 0 00.967 2.816 8.468 8.468 0 001.814 2.252 8.267 8.267 0 002.466 1.494c.919.359 1.894.538 2.925.538 2.934 0 5.304-1.224 7.109-3.672l3.53 2.644a13.178 13.178 0 01-4.546 3.917c-1.805.947-3.836 1.42-6.092 1.42-1.838 0-3.555-.327-5.15-.98a12.527 12.527 0 01-4.159-2.741 13.016 13.016 0 01-2.78-4.138C98.339 57.558 98 55.836 98 53.975c0-1.762.322-3.427.967-4.994zm6.794-1.934c-1.37 1.159-2.28 2.701-2.732 4.627h15.039c-.42-1.926-1.314-3.468-2.684-4.627-1.37-1.159-2.974-1.738-4.811-1.738-1.838 0-3.442.58-4.812 1.738zM132.21 47.274c-.996 1.135-1.494 2.675-1.494 4.62V66H126V41.195h4.67v3.064a6.778 6.778 0 012.31-2.383c.95-.584 2.078-.876 3.386-.876H138v4.572h-1.961c-1.556 0-2.833.567-3.829 1.702z"></path></g></svg> 