<?xml version="1.0" encoding="UTF-8"?> <svg xmlns="http://www.w3.org/2000/svg" width="176" height="99"><g fill="none" fill-rule="nonzero"><path d="M108.883 35.222c.155.05.312.094.465.152a2.122 2.122 0 011.363 2.347c-.287 1.77-1.487 3.046-3.252 3.372-.887.163-1.762.08-2.437-.63-.621-.653-.663-1.443-.432-2.259.464-1.636 1.554-2.609 3.215-2.952l.234-.03h.844zM157 47.029l-.422-.061v-1.549l-.043-.008-.545 1.573h-.372l-.536-1.527-.04.009v1.506h-.415v-2.154h.634l.541 1.494.54-1.49.658-.06v2.267zM146.39 64.143h-5.6c.137-.533.267-1.047.4-1.56.902-3.466 1.81-6.93 2.697-10.399.145-.565.252-1.15.28-1.732.046-.965-.422-1.529-1.376-1.67-1.48-.218-2.881.031-4.155.853a2.36 2.36 0 00-1.044 1.456c-1.106 4.279-2.222 8.555-3.335 12.832-.017.066-.044.128-.065.186h-5.644l5.037-19.324c1.144-.184 2.268-.276 3.383.036.616.173 1.176.448 1.376 1.128.07.238.08.492.122.754.804-.759 1.744-1.326 2.755-1.77 1.37-.602 2.826-.729 4.3-.686.824.024 1.642.115 2.425.407 1.36.504 2.013 1.542 2.189 2.92.147 1.157-.063 2.294-.343 3.406-.876 3.491-1.784 6.974-2.68 10.46-.22.854-.445 1.706-.669 2.56-.013.05-.036.098-.052.143M50.374 44.564c1.09-.143 2.153-.219 3.22-.014 1.303.25 1.994 1.237 1.698 2.547-.33 1.456-.725 2.897-1.094 4.344-.457 1.795-.927 3.587-1.37 5.384-.135.542-.241 1.092-.154 1.664.097.644.466 1.054 1.07 1.184 1.685.365 3.257.077 4.666-.942.416-.301.687-.716.797-1.23.068-.315.162-.625.243-.937l3.079-11.818c.01-.041.03-.08.062-.167.477-.042.972-.107 1.468-.123.792-.027 1.58.002 2.316.356.802.385 1.219 1.203 1.1 2.088-.116.862-.334 1.714-.553 2.557-1.238 4.787-2.49 9.57-3.737 14.354-.011.043-.032.082-.053.135h-2.421c-.493 0-.985.012-1.477-.004-.83-.027-1.135-.392-1.031-1.214.035-.277.087-.55.136-.851-.31.24-.598.479-.9.694-1.636 1.168-3.461 1.727-5.471 1.713-.986-.005-1.964-.038-2.914-.338-1.352-.427-2.27-1.617-2.38-3.034-.1-1.314.147-2.585.465-3.84.86-3.397 1.748-6.785 2.626-10.177l.61-2.331M122.864 52.295c.072-.408.17-.8.204-1.199.036-.4.03-.805.006-1.206-.058-.985-.558-1.606-1.475-1.84a4.213 4.213 0 00-2.213.011c-2.142.606-3.124 2.235-3.715 4.234h7.193zm4.152 3.097h-12.099c-.181 1.012-.208 2.013.112 3.008.39 1.216 1.257 1.858 2.475 2.07 2.206.386 4.204-.152 6.038-1.389.312-.21.616-.433.926-.65.012-.008.033-.007.069-.014.391.829.74 1.677.788 2.608.039.78-.387 1.345-.971 1.801-.863.672-1.859 1.074-2.896 1.383a13.353 13.353 0 01-3.733.54c-1.428.01-2.838-.069-4.216-.481-2.394-.717-3.807-2.316-4.306-4.746-.304-1.482-.144-2.947.155-4.408.342-1.662.844-3.27 1.723-4.732 1.894-3.153 4.59-5.23 8.234-5.97 1.767-.359 3.543-.361 5.28.198 2.066.667 3.363 2.37 3.552 4.528.155 1.777-.256 3.46-.76 5.134-.112.376-.246.745-.37 1.12" fill="#2A2A2A"></path><path d="M34.629 54.832l-.026.022.056.06.018-.016-.048-.066m-.28-.49c-.907-1.634-1.768-3.294-3.02-4.708-1.203-1.36-2.72-2.066-4.52-2.19l-.76-.052c-.44-2.151-1.117-4.232-2.376-6.081-1.249-1.835-2.816-3.353-4.673-4.66.168-.014.285-.036.401-.033 1.64.059 3.289.043 4.92.198 3.454.328 5.995 2.068 7.587 5.162.766 1.486 1.184 3.087 1.583 4.697.816 3.29 1.644 6.581 2.794 9.776.722 2.01 1.595 3.95 2.801 5.726.515.757 1.07 1.48 1.755 2.144-.305-.018-.611-.026-.915-.055-1.63-.155-3.231-.45-4.774-1.018-2.057-.757-3.65-2.101-5.016-3.792-1.45-1.795-2.445-3.814-3.239-5.956a20.916 20.916 0 00-.758-1.763c-.799-1.665-1.39-2.356-2.907-3.452h.733c.686.002 1.372.01 2.057.007 1.833-.007 3.408.655 4.789 1.826 1.13.96 2.002 2.136 2.842 3.342l.646.929.254.387c.015-.01.03-.02.045-.028l-.25-.407" fill="#79C150"></path><path d="M80.064 58.816c.192.716.412 1.363.534 2.027.137.751-.177 1.368-.748 1.861-.91.785-1.982 1.24-3.133 1.527-1.719.43-3.45.527-5.18.086-1.6-.407-2.616-1.676-2.758-3.316-.105-1.214.173-2.368.472-3.52 1.284-4.964 2.577-9.926 3.869-14.888.35-1.343.705-2.686 1.06-4.032 1.017-.152 2.023-.233 3.044-.076 1.39.214 2.165 1.256 1.868 2.636-.226 1.05-.516 2.086-.778 3.129l-.07.286h5.747l-1.089 4.179h-5.754l-1.053 4.042c-.422 1.623-.861 3.242-1.254 4.873-.108.45-.15.94-.1 1.4.087.773.608 1.183 1.394 1.235 1.281.083 2.37-.436 3.416-1.087.148-.092.286-.2.513-.362M87.645 44.673c1.065-.175 2.11-.266 3.153-.01.268.066.534.17.778.3.63.335.86.73.954 1.56.345-.294.675-.601 1.033-.873 1.049-.798 2.213-1.352 3.535-1.494.813-.087 1.631-.047 2.401.291.705.31.996.886.787 1.624a6.097 6.097 0 01-.434 1.12c-.54 1.059-1.235 2.016-1.971 2.962-.044-.032-.081-.053-.109-.083-1.389-1.522-3.68-1.322-5.04-.327-.83.606-1.185 1.442-1.427 2.397-.845 3.344-1.728 6.68-2.597 10.02-.158.607-.32 1.214-.481 1.83H82.61l5.035-19.317M41.114 63.332c-1.877-1.796-2.756-4.132-3.714-6.427l5.286-20.289c1.634.1 3.103.494 4 2.01.484.816.467 1.694.233 2.59-1.597 6.101-3.189 12.204-4.782 18.306-.32 1.227-.639 2.453-.96 3.678-.008.034-.03.064-.063.132M103.762 64.339c-.382.031-.763.066-1.146.093-.772.054-1.544.061-2.295-.16-1.428-.418-1.681-1.14-1.469-2.388.209-1.218.562-2.414.874-3.615 1.079-4.166 2.167-8.331 3.253-12.497.09-.346.184-.692.288-1.082.34-.035.694-.083 1.05-.108.834-.059 1.667-.07 2.479.178 1.048.319 1.62 1.188 1.407 2.259-.227 1.146-.521 2.28-.815 3.413-1.06 4.091-2.133 8.179-3.2 12.268l-.426 1.639M22.964 49.112c.767.537 1.337 1.208 1.816 1.958.84 1.312 1.394 2.755 1.91 4.214.008.024.02.048.037.091l-2.22 8.563h-5.43l3.887-14.826M153.092 46.978v-1.793h-.703v-.368h1.86v.356h-.682v1.805z" fill="#2A2A2A"></path></g></svg> 